<?xml version="1.0" encoding="utf-8"?>
<!-- Generator: Adobe Illustrator 22.0.0, SVG Export Plug-In . SVG Version: 6.00 Build 0)  -->
<svg version="1.1" id="Capa_1" xmlns="http://www.w3.org/2000/svg" xmlns:xlink="http://www.w3.org/1999/xlink" x="0px" y="0px"
	 viewBox="0 0 48.6 48.6" style="enable-background:new 0 0 48.6 48.6;" xml:space="preserve">
<style type="text/css">
	.st0{fill:#252A34;}
</style>
<path class="st0" d="M14.8,33.7c2.3,0.2,5.2,0.3,8.6,0.3v-8.9h-9.6C13.8,28.5,14.2,31.4,14.8,33.7z"/>
<path class="st0" d="M25.2,23.2h9.6c-0.1-3.5-0.4-6.3-1-8.6c-2.3-0.2-5.2-0.3-8.6-0.3L25.2,23.2L25.2,23.2z"/>
<path class="st0" d="M15.3,12.6c2.2-0.1,4.9-0.2,8-0.3V4.1C21.5,4.4,17.5,6,15.3,12.6z"/>
<path class="st0" d="M25.2,4.1v8.3c3.1,0,5.8,0.1,8,0.3C31,6.1,27,4.5,25.2,4.1z"/>
<path class="st0" d="M35.8,33.5c4.8-0.4,6.9-1,7.2-1.1c1-2.3,1.6-4.7,1.7-7.3h-8C36.7,28.4,36.3,31.2,35.8,33.5z"/>
<path class="st0" d="M35.3,12.8c3.1,0.3,5.2,0.6,6.5,0.9c-2.6-4.3-6.6-7.5-11.5-9C32.2,6.2,34.1,8.7,35.3,12.8z"/>
<path class="st0" d="M36.7,23.2h8c-0.1-2.6-0.7-5.1-1.7-7.3c-0.3-0.1-2.4-0.7-7.2-1.1C36.3,17.1,36.7,19.9,36.7,23.2z"/>
<path class="st0" d="M13.7,23.2h9.6v-8.9c-3.4,0-6.3,0.1-8.6,0.3C14.2,16.9,13.8,19.7,13.7,23.2z"/>
<path class="st0" d="M11.9,25.1h-8c0.1,2.6,0.7,5.1,1.7,7.3c0.3,0.1,2.4,0.7,7.2,1.1C12.3,31.2,11.9,28.4,11.9,25.1z"/>
<path class="st0" d="M23.4,44.2v-8.3c-3.1,0-5.8-0.1-8-0.3C17.6,42.1,21.5,43.8,23.4,44.2z"/>
<path class="st0" d="M13.3,35.5c-3.1-0.3-5.2-0.6-6.5-0.9c2.6,4.3,6.6,7.5,11.5,9C16.4,42.1,14.5,39.5,13.3,35.5z"/>
<path class="st0" d="M30.4,43.6c4.8-1.5,8.9-4.8,11.5-9c-1.3,0.3-3.4,0.6-6.5,0.9C34.1,39.5,32.2,42.1,30.4,43.6z"/>
<path class="st0" d="M12.8,14.7c-4.8,0.4-6.9,1-7.2,1.1c-1,2.3-1.6,4.7-1.7,7.3h8C11.9,19.9,12.3,17.1,12.8,14.7z"/>
<path class="st0" d="M25.2,35.9v8.3c1.8-0.4,5.8-2,8-8.6C31,35.7,28.4,35.8,25.2,35.9z"/>
<path class="st0" d="M18.2,4.6c-4.8,1.5-8.9,4.8-11.5,9c1.3-0.3,3.4-0.6,6.5-0.9C14.5,8.7,16.4,6.2,18.2,4.6z"/>
<path class="st0" d="M34.9,25.1h-9.6V34c3.4,0,6.3-0.1,8.6-0.3C34.4,31.4,34.8,28.5,34.9,25.1z"/>
</svg>
